<?xml version="1.0" encoding="utf-8"?>
<!-- Generator: Adobe Illustrator 27.2.0, SVG Export Plug-In . SVG Version: 6.00 Build 0)  -->
<svg version="1.1" id="Lager_1" xmlns="http://www.w3.org/2000/svg" xmlns:xlink="http://www.w3.org/1999/xlink" x="0px" y="0px"
	 viewBox="0 0 1920 1080" style="enable-background:new 0 0 1920 1080;" xml:space="preserve">
<g>
	<path d="M38.8,663.3c67.9,24.9,133.9,53.5,202.5,72.8c58,16.3,118.8,28.1,178.9,30.5c90.5,3.7,133-41.7,134.4-133.4
		c0.7-46.2-8.5-92.9-4.3-138.6c4.1-45.3,11.4-93.5,31.3-133.5c43.5-87.7,126.5-107.9,216.8-105.5c88.3,2.3,171.6,27.8,254.5,55.9
		c11.5,3.9,25.5,0.8,38.4,0.4c12.5-0.3,25.2-2.8,37.4-1.4c13.4,1.6,26.9,5.4,39.4,10.5c39.4,16.2,70.3,15.7,104.8-19.4
		c43.7-44.5,103.9-53.1,165.3-39.8c83.4,18.2,166.9,35.7,249.5,56.9c15.1,3.9,30.3,22.4,37.4,37.8c7.8,17.1,16.4,25.2,34.5,28.6
		c32.1,6.1,63.7,14.7,95.3,22.9c28.4,7.3,41.4,25.5,36,48.4c-5.7,24.1-26.9,36-55.4,29.8c-31-6.7-61.7-14.5-94.2-22.2
		c-7.9,37.4-16.2,73.2-22,109.4c-0.8,4.7,11,14.7,18.5,16.9c26,7.9,52.8,13,79,20c23.6,6.2,31.6,23.2,27.4,45.8
		c-4,21.2-25.1,34.9-47.6,30.3c-31.9-6.5-63.3-15.7-95.4-21.2c-9-1.6-22.6,2.7-28.8,9.3c-19.9,21.2-41.2,29.3-70.5,22.4
		c-85.6-20.3-171.7-38.5-257.5-58.1c-76.6-17.5-136.5-83.8-144.3-162.1c-2.1-21.3-10.6-29.9-30.3-33.8c-22.2-4.4-45.3-8.5-65.4-18.2
		c-17.5-8.5-31.3-24.5-46.6-37.3c-6.5-5.5-11.7-14-19.1-16.8c-73.4-27.3-148-50.5-226.8-54.8c-26.1-1.4-52.9-0.7-78.6,3.9
		c-69.8,12.5-112.1,60.2-121,138.6c-4.1,36.7-0.7,74.3-1.2,111.5c-0.6,39.8,3.1,80.5-3.9,119.2c-14.2,78-68.2,129.1-147.3,134.2
		c-55.4,3.6-113.7,1.6-167.1-12.1c-84.1-21.6-165.1-55-247.3-83.6C32.6,723,21,717.3,33,699.3c43.1,16.9,85.7,34.4,129,50.3
		c74.4,27.3,150,50.1,229.8,54.5c19.9,1.1,40,0.5,59.8-1.7c77.5-8.6,126.6-54.8,136.7-132.2c4.1-31.2,1-63.4,0.8-95.1
		c-0.2-34.5-3.5-69.1-1-103.4C596.8,355.5,662.2,294,779.2,292c86.7-1.4,168.7,22.5,249.7,50.5c8.7,3,17.6,5.2,29.3,2.5
		c-2.2-3.2-3.8-8.3-6.8-9.4c-92.8-32.6-186.4-61.6-286.7-57c-110.4,5.1-179.5,68.4-190.2,178.8c-4,41.3,0.8,83.4,0.3,125.1
		c-0.4,34.3,1.5,69.4-4.8,102.8c-10.8,58-49.5,94.9-107.7,99.9c-49.1,4.2-101.4,5.2-148.3-7.3c-89.1-23.8-175.4-58.3-262.8-88.5
		C38.4,685,27.1,678.8,38.8,663.3z M1604.7,627.5c-4,21.5,1.2,41.1,22,48.8c7.1,2.6,20-10.8,28.9-16c-19.9-12.5-35.7-22.4-51.5-32.3
		c3.6-17.1,3.1-46,11.8-49.1c23.3-8.3,50.6-5.7,81.2-7.7c4.2-22.1,8.7-49.7,15-76.8c6.3-27-0.3-41.8-30.5-45.8
		c-27-3.5-36.7-22.3-31.2-49.1c6.4-31.3,28.3-35.5,57.1-32.2c-6.6-11-13.5-24.8-21.7-25.6c-8.8-0.8-20.2,9.1-28,16.8
		c-7.5,7.4-14.5,17.3-17.3,27.3c-15,53.8-31.2,107.5-41.4,162.3C1594.3,573.3,1602.4,600.9,1604.7,627.5z M1588.4,444.3
		c19.5-40.1,37.4-76.9,55.6-114.4c-70.6-15.5-140.6-30.9-210.6-46.3c-3.5-0.8-7-1.9-10.6-2.5c-78-13.4-177.8,34.2-198.9,140.3
		c-15.8,79.4,32.5,168.8,114,192.4c52.1,15.1,106,24.3,159,36.1c28.7,6.4,57.4,12.5,83.1,18.2c-1.6-43.2-2.2-82.8-5.2-122.2
		c-0.6-7.4-9.8-18.2-17.1-20.3c-26.9-7.9-54.8-12.7-82.2-18.9c-29.7-6.7-59.4-13.5-90.6-20.6c6.5-28.9,12.2-54.2,18.4-81.3
		C1467.5,418.5,1529.2,431.7,1588.4,444.3z M1196.6,427.4c7.4-23.9,13.9-45.2,21.3-69.2c-34.4-9.5-67-20.2-100.3-27.1
		c-20.1-4.1-35.2,7.4-40.3,28c-4.9,19.8,4.4,34.9,22.5,40.9C1131.3,410.4,1163.7,418.2,1196.6,427.4z M1806.6,666.3
		c4.2-3.8,13.7-8.3,14.1-13.6c0.5-7.1-4.6-19.8-9.7-21.2c-53.4-14.4-107.1-27.7-161.1-39.3c-6.2-1.3-15,9.3-22.6,14.4
		c5.7,6.9,10,16.7,17.4,20.1c12.1,5.6,26.1,7.3,39.3,10.4C1723.6,646.7,1763.2,656,1806.6,666.3z M1851.3,466.9
		c4.5-4,14.6-8.8,15.6-15.1c1-6-6.1-15.5-12.2-19.9c-6.2-4.4-15.4-4.5-23.4-6.4c-43.3-10.4-86.4-21.6-129.9-30.4
		c-8-1.6-18,6.4-27.1,9.9c3.8,7.2,6.2,19.4,11.5,20.9C1739.3,440.3,1793.3,452.8,1851.3,466.9z M1411.3,469.5
		c57.8,12.5,112,24.2,168,36.3c2.6-14.9,4.5-25.8,6.6-38.3c-56.7-12.4-110.2-24.1-165-36.1C1417.6,444.6,1415,454.8,1411.3,469.5z"
		/>
	<path d="M1320.7,347.3c30.2-32.5,62.5-40.8,95-36c57.1,8.3,113.5,22,170,34.3c4.8,1,8.2,8.8,12.2,13.4c-6.2,1-12.8,3.9-18.4,2.6
		c-39.7-9.1-78.9-20.5-118.9-28.2c-40.3-7.8-81.1-11.8-117.7,15.3C1339.7,351,1332.7,348.2,1320.7,347.3z"/>
	<path d="M1099.5,356.4c11.4-3.7,23.2-11.2,34.1-10.1c18.5,1.9,36.6,8.8,54.3,15c4,1.4,5.9,8.5,8.8,13c-4.6,1.2-9.7,4.2-13.7,3.2
		c-13.9-3.5-27.3-10.1-41.3-12.2c-12.6-1.9-25.9,0.6-38.9,1.2C1101.7,363.2,1100.6,359.8,1099.5,356.4z"/>
</g>
</svg>
